<?xml version="1.0" encoding="UTF-8"?>
<!-- Generator: visioncortex VTracer 0.6.3 -->
<svg version="1.1" xmlns="http://www.w3.org/2000/svg" width="1280" height="1280">
<path d="M0 0 C422.4 0 844.8 0 1280 0 C1280 422.4 1280 844.8 1280 1280 C857.6 1280 435.2 1280 0 1280 C0 857.6 0 435.2 0 0 Z " fill="#FBFCFE" transform="translate(0,0)"/>
<path d="M0 0 C10.12 8.43 14.95 19.57 16.71 32.3 C17.81 46.58 16.4 60.65 7 72 C-1.46 81.21 -10.56 85.36 -23.01 86.2 C-35.26 86.39 -44.92 84.08 -55 77 C-55.96 76.39 -55.96 76.39 -56.93 75.77 C-64.27 70.47 -69.31 59.32 -70.79 50.53 C-72.17 33.94 -70.29 18.5 -59.31 5.25 C-43.83 -11.1 -18.32 -12.4 0 0 Z " fill="#090A0C" transform="translate(419,772)"/>
<path d="M0 0 C6.47 3.8 8.4 13.66 10.66 20.47 C11 21.48 11.34 22.49 11.7 23.54 C12.78 26.75 13.86 29.97 14.94 33.19 C16.02 36.4 17.1 39.62 18.19 42.84 C18.86 44.83 19.53 46.83 20.2 48.82 C21.99 54.15 23.87 59.43 25.88 64.69 C26.53 64.69 27.19 64.69 27.88 64.69 C28.24 63.61 28.24 63.61 28.62 62.5 C31.43 54.26 34.27 46.03 37.13 37.81 C37.63 36.4 38.12 34.98 38.61 33.57 C40.05 29.42 41.51 25.29 42.98 21.16 C43.45 19.85 43.91 18.54 44.37 17.23 C45.01 15.39 45.67 13.55 46.33 11.72 C46.7 10.67 47.07 9.63 47.46 8.55 C49.39 4.66 51.93 1.57 55.94 -0.25 C58.47 -0.33 59.72 0.38 61.88 1.69 C65.64 8.07 67.85 14.99 70.2 21.99 C70.6 23.15 70.99 24.31 71.4 25.51 C72.22 27.95 73.05 30.39 73.87 32.83 C75.13 36.57 76.4 40.32 77.67 44.06 C78.47 46.43 79.28 48.81 80.08 51.18 C80.46 52.3 80.84 53.43 81.23 54.59 C81.58 55.62 81.93 56.66 82.29 57.72 C82.59 58.64 82.9 59.55 83.22 60.49 C83.88 62.69 83.88 62.69 83.88 64.69 C84.53 64.69 85.19 64.69 85.88 64.69 C86.21 65.35 86.53 66.01 86.88 66.69 C87.06 66.13 87.25 65.58 87.44 65.01 C89.42 59.17 91.4 53.33 93.38 47.49 C94.12 45.32 94.85 43.15 95.59 40.98 C97.99 33.87 100.42 26.77 102.88 19.69 C103.17 18.83 103.46 17.98 103.76 17.1 C104.54 14.85 105.34 12.59 106.15 10.34 C106.58 9.11 107.02 7.89 107.47 6.62 C109.36 2.68 111.35 1.31 115.31 -0.31 C117.88 -0.31 117.88 -0.31 120.75 1.56 C123.21 5.18 123.01 6.84 122.42 11.06 C121.39 16.06 119.64 20.81 117.9 25.61 C117.3 27.31 117.3 27.31 116.69 29.04 C115.4 32.66 114.11 36.27 112.81 39.88 C111.97 42.25 111.13 44.62 110.28 47 C108.23 52.79 106.15 58.57 104.07 64.35 C102.89 67.64 101.73 70.93 100.57 74.23 C99.86 76.23 99.15 78.23 98.44 80.24 C98.12 81.16 97.81 82.07 97.48 83.02 C97.18 83.86 96.88 84.7 96.57 85.56 C96.31 86.29 96.06 87.02 95.79 87.77 C94.77 89.91 93.7 91.18 91.88 92.69 C89.57 93.16 89.57 93.16 87 93.19 C86.16 93.22 85.31 93.25 84.45 93.28 C80.75 92.43 79.35 90.52 76.88 87.69 C75.42 84.64 75.42 84.64 74.26 81.23 C74.05 80.61 73.83 79.99 73.61 79.35 C72.91 77.34 72.24 75.33 71.56 73.31 C71.09 71.92 70.61 70.53 70.13 69.14 C69.16 66.34 68.21 63.53 67.25 60.72 C66 57.02 64.7 53.34 63.38 49.67 C62.82 48.09 62.82 48.09 62.25 46.49 C61.56 44.54 60.86 42.59 60.16 40.65 C59.86 39.78 59.55 38.91 59.24 38.02 C58.97 37.27 58.71 36.53 58.43 35.76 C57.88 33.69 57.88 33.69 57.88 29.69 C56.88 29.69 55.89 29.69 54.88 29.69 C54.69 30.99 54.69 30.99 54.5 32.33 C53.9 35.54 53.05 38.38 51.94 41.45 C51.54 42.56 51.15 43.66 50.74 44.8 C50.31 45.98 49.88 47.16 49.44 48.38 C49 49.59 48.56 50.81 48.1 52.07 C46.94 55.29 45.76 58.51 44.59 61.72 C43.88 63.68 43.17 65.64 42.46 67.6 C41.1 71.34 39.74 75.08 38.38 78.81 C37.95 79.97 37.53 81.13 37.1 82.33 C36.71 83.4 36.31 84.47 35.91 85.57 C35.56 86.51 35.22 87.46 34.86 88.43 C33.88 90.69 33.88 90.69 31.88 92.69 C27.55 93.88 25.47 93.95 21.32 92.12 C17.45 89.75 16.38 87.27 14.97 82.93 C14.73 82.24 14.5 81.56 14.26 80.85 C13.73 79.31 13.22 77.77 12.72 76.22 C11.49 72.54 10.17 68.89 8.86 65.23 C7.01 60.08 5.2 54.91 3.38 49.75 C2.27 46.62 1.16 43.49 0.05 40.35 C-0.66 38.32 -1.38 36.29 -2.09 34.26 C-3.69 29.69 -5.32 25.13 -7.06 20.61 C-7.35 19.83 -7.65 19.06 -7.95 18.26 C-8.48 16.85 -9.03 15.44 -9.6 14.03 C-10.83 10.75 -11.15 8.82 -10.44 5.35 C-9.12 2.69 -9.12 2.69 -6.38 0.69 C-3.12 -0.31 -3.12 -0.31 0 0 Z " fill="#090A0C" transform="translate(478.125,764.3125)"/>
<path d="M0 0 C1.16 0 1.16 0 2.33 0.01 C32.27 0.15 63.23 1.27 91.34 12.35 C94.44 13.54 97.57 14.58 100.72 15.63 C110.27 18.84 119.61 22.55 128.94 26.38 C129.56 26.63 130.19 26.88 130.83 27.14 C137.87 30.01 144.4 32.98 150.69 37.25 C149.7 37.75 149.7 37.75 148.69 38.25 C147.7 37.92 146.71 37.59 145.69 37.25 C141.01 36.73 136.3 36.46 131.6 36.16 C130.89 36.12 130.19 36.07 129.46 36.03 C113.68 35.05 97.98 35.2 82.18 35.58 C78.65 35.66 75.11 35.73 71.58 35.8 C70.53 35.82 70.53 35.82 69.46 35.84 C62.56 35.97 55.66 36.1 48.76 36.22 C47.36 36.24 45.97 36.26 44.57 36.29 C39.75 36.37 34.93 36.43 30.1 36.48 C28.25 36.51 28.25 36.51 26.36 36.55 C10.35 36.63 2.08 28.61 -8.99 18.1 C-13.52 13.85 -18.21 10.26 -23.4 6.84 C-24.03 6.31 -24.66 5.79 -25.31 5.25 C-25.31 4.26 -25.31 3.27 -25.31 2.25 C-16.92 -0.12 -8.65 -0.06 0 0 Z " fill="#090A0C" transform="translate(639.3125,521.75)"/>
<path d="M0 0 C1.12 0.01 1.12 0.01 2.26 0.01 C3.52 0.01 3.52 0.01 4.82 0.01 C6.19 0.03 6.19 0.03 7.59 0.06 C8.53 0.07 9.47 0.08 10.43 0.09 C12.43 0.12 14.42 0.15 16.41 0.19 C19.45 0.24 22.49 0.25 25.53 0.26 C27.47 0.29 29.4 0.33 31.34 0.37 C32.24 0.37 33.15 0.36 34.09 0.36 C36.58 0.44 38.76 0.58 41.16 1.24 C43.77 4.05 43.77 4.05 46.16 7.24 C51.77 11.32 57.73 12 64.48 12.42 C65.48 12.49 66.47 12.57 67.5 12.64 C78.5 13.41 89.52 13.9 100.54 14.3 C103.96 14.43 107.38 14.57 110.8 14.72 C140.3 15.87 170.37 15.17 199.26 8.67 C201.55 8.16 203.85 7.69 206.16 7.24 C208.5 10.9 208.69 13.98 208.16 18.24 C199.66 26.5 185.51 26.74 174.35 27.93 C172.69 28.11 172.69 28.11 171 28.29 C147.44 30.58 123.68 30.48 100.04 30.49 C98.92 30.49 98.92 30.49 97.78 30.5 C77.47 30.52 57.24 30.21 36.97 28.87 C36.02 28.8 35.07 28.74 34.09 28.68 C24.68 28.03 15.3 27.21 5.92 26.2 C5.15 26.12 4.38 26.04 3.59 25.96 C-1.72 25.36 -1.72 25.36 -2.84 24.24 C-3.25 20.61 -3.36 16.95 -3.53 13.31 C-3.59 12.28 -3.65 11.25 -3.71 10.19 C-3.76 9.21 -3.8 8.23 -3.85 7.22 C-3.9 6.31 -3.94 5.41 -3.99 4.47 C-3.79 1.57 -2.96 0.39 0 0 Z " fill="#090A0C" transform="translate(747.8393096923828,655.757080078125)"/>
<path d="M0 0 C3.33 5.86 3.37 10.95 3.22 17.58 C3.21 19.09 3.21 19.09 3.2 20.63 C3.17 23.84 3.12 27.04 3.06 30.25 C3.01 33.44 2.97 36.63 2.94 39.83 C2.92 41.81 2.89 43.79 2.85 45.77 C2.76 54 2.96 64.17 8 71 C14.65 75.72 20.37 77.32 28.5 76.75 C29.6 76.68 30.71 76.62 31.84 76.55 C36.74 75.7 39.25 73.98 42.25 70.06 C44.7 65.77 45.12 62.52 45.16 57.61 C45.17 56.53 45.18 55.45 45.19 54.34 C45.2 53.18 45.2 52.02 45.21 50.82 C45.24 48.36 45.27 45.9 45.3 43.44 C45.34 39.56 45.38 35.68 45.4 31.81 C45.43 28.06 45.47 24.32 45.52 20.57 C45.53 19.42 45.53 18.27 45.53 17.08 C45.63 10.98 45.92 6.32 49 1 C51.81 -1.06 51.81 -1.06 55 -2 C58.25 -1.44 58.25 -1.44 61 0 C63.07 3.14 63.25 5.71 63.26 9.42 C63.27 10.51 63.27 11.59 63.28 12.71 C63.27 13.88 63.27 15.05 63.27 16.25 C63.27 17.47 63.27 18.68 63.27 19.92 C63.27 22.49 63.27 25.06 63.26 27.62 C63.25 31.52 63.26 35.42 63.27 39.32 C63.27 41.82 63.27 44.32 63.27 46.82 C63.27 47.97 63.27 49.13 63.28 50.32 C63.21 62.66 61.99 74.76 53 84 C43.62 91.8 30.76 93 19 92 C8.67 90.65 -1.37 87.11 -8 78.62 C-12.31 71.69 -14.1 63.45 -14.16 55.37 C-14.17 54.27 -14.18 53.16 -14.19 52.02 C-14.19 50.84 -14.2 49.66 -14.2 48.44 C-14.21 47.21 -14.21 45.99 -14.22 44.73 C-14.23 42.14 -14.24 39.56 -14.24 36.97 C-14.25 33.01 -14.28 29.06 -14.31 25.1 C-14.32 22.59 -14.32 20.08 -14.33 17.56 C-14.34 16.38 -14.35 15.2 -14.37 13.98 C-14.36 12.87 -14.36 11.77 -14.36 10.63 C-14.36 9.18 -14.36 9.18 -14.37 7.69 C-13.93 4.48 -12.89 2.61 -11 0 C-6.91 -2.54 -4.2 -2.28 0 0 Z " fill="#090A0C" transform="translate(649,766)"/>
<path d="M0 0 C2.23 3.34 2.25 4.41 2.26 8.31 C2.26 9.39 2.27 10.48 2.28 11.6 C2.28 12.77 2.27 13.95 2.27 15.16 C2.29 17.65 2.31 20.14 2.34 22.63 C2.36 26.56 2.37 30.48 2.38 34.41 C2.39 38.2 2.42 41.99 2.46 45.78 C2.46 46.94 2.45 48.1 2.45 49.29 C2.55 57.66 3.42 66.33 9.5 72.56 C10.33 73.04 11.15 73.51 12 74 C12.87 74.52 12.87 74.52 13.77 75.04 C20.8 78.06 29.96 77.76 37 75 C41.58 71.54 43.62 67.47 45 62 C45.42 57.81 45.42 53.64 45.41 49.43 C45.42 48.24 45.43 47.05 45.44 45.82 C45.48 40.74 45.5 35.66 45.51 30.59 C45.53 26.87 45.56 23.15 45.59 19.43 C45.59 18.29 45.59 17.15 45.58 15.97 C45.64 9.9 45.94 5.31 49 0 C51.79 -1.76 53.35 -2.03 56.62 -1.88 C59.55 -0.8 60.43 0.34 62 3 C62.97 5.91 63.13 7.79 63.15 10.82 C63.15 11.79 63.16 12.77 63.16 13.78 C63.17 14.84 63.17 15.9 63.17 16.99 C63.17 18.64 63.17 18.64 63.18 20.32 C63.18 22.64 63.19 24.97 63.19 27.3 C63.19 30.83 63.21 34.35 63.22 37.88 C63.31 71.68 63.31 71.68 53.99 82.29 C45.15 90.77 34.9 92.34 22.95 92.14 C11.87 91.61 2.1 89.14 -5.98 81.01 C-11.61 73.86 -14.1 66.26 -14.16 57.19 C-14.17 56.04 -14.18 54.9 -14.19 53.72 C-14.19 52.49 -14.2 51.26 -14.2 50 C-14.21 48.73 -14.21 47.46 -14.22 46.16 C-14.23 43.48 -14.24 40.8 -14.24 38.12 C-14.25 34.69 -14.27 31.26 -14.3 27.84 C-14.32 24.56 -14.32 21.28 -14.33 18 C-14.34 16.77 -14.35 15.55 -14.37 14.28 C-14.36 13.14 -14.36 11.99 -14.36 10.81 C-14.36 9.81 -14.36 8.8 -14.37 7.77 C-13.94 4.51 -12.93 2.64 -11 0 C-6.87 -2.57 -4.32 -2.01 0 0 Z " fill="#090A0C" transform="translate(865,766)"/>
<path d="M0 0 C2.45 3.67 2.32 5.66 2 10 C0 12 0 12 -3.06 12.38 C-7.28 11.97 -10.05 10.85 -13.79 8.97 C-20.42 6.05 -29.73 5.51 -36.55 7.89 C-38.41 8.86 -40.21 9.92 -42 11 C-42.66 11 -43.32 11 -44 11 C-46.37 17.29 -46.37 17.29 -46.69 23.88 C-41.04 30.99 -29.69 31.87 -21.38 33.62 C-11.7 35.78 -2.83 38.36 2.88 46.96 C6.5 53.57 6.93 60.25 4.94 67.44 C2.57 73.93 -1.73 79.04 -7.81 82.38 C-22.28 88.61 -40.62 87.49 -55.06 81.79 C-62.46 78.24 -62.46 78.24 -65 75 C-64.88 71.58 -64.57 69.01 -62.88 66 C-59.83 64.37 -57.18 65.13 -54 66 C-52.16 66.65 -50.33 67.32 -48.5 68 C-38.06 71.9 -26.28 72.74 -15.71 68.85 C-13.8 68.01 -13.8 68.01 -12 66 C-11.64 63.7 -11.64 63.7 -11.69 61.12 C-11.67 60.26 -11.65 59.4 -11.64 58.51 C-12.08 55.43 -12.79 54.18 -15 52 C-17.58 50.78 -17.58 50.78 -20.62 50 C-21.78 49.67 -22.93 49.34 -24.12 49 C-27.56 48.09 -31.01 47.32 -34.48 46.55 C-41.9 44.91 -48.45 43.04 -55 39 C-55.95 38.44 -56.9 37.89 -57.88 37.31 C-61.92 32.91 -64.15 26.98 -64.5 21 C-64.02 13.28 -60.35 6.31 -55.12 0.75 C-51.19 -2.5 -46.76 -4.29 -42 -6 C-41.33 -6.25 -40.66 -6.49 -39.97 -6.75 C-27.01 -10.72 -10.91 -8.02 0 0 Z " fill="#090A0C" transform="translate(812,772)"/>
<path d="M0 0 C8.82 6.89 15.57 15.23 21 25 C21 25.66 21 26.32 21 27 C11.23 27.39 1.46 27.78 -8.31 28.17 C-12.85 28.35 -17.39 28.54 -21.93 28.72 C-26.31 28.89 -30.69 29.07 -35.08 29.24 C-36.74 29.31 -38.41 29.38 -40.08 29.44 C-42.42 29.54 -44.77 29.63 -47.12 29.72 C-47.8 29.75 -48.48 29.78 -49.18 29.81 C-51.12 29.88 -53.06 29.94 -55 30 C-55.72 30.03 -56.44 30.05 -57.18 30.08 C-62.7 30.22 -62.7 30.22 -65.62 28.12 C-68.15 24.81 -70.17 21.38 -72.24 17.77 C-74.87 13.62 -78.04 9.97 -81.24 6.25 C-83 4 -83 4 -83 2 C-57.03 -9.29 -24.95 -18.18 0 0 Z " fill="#090A0C" transform="translate(611,538)"/>
<path d="M0 0 C6.43 5.3 10.54 11.8 12 20 C12.3 23.52 12.4 27.03 12.44 30.56 C12.45 31.44 12.46 32.31 12.47 33.21 C12.34 42.62 10.46 50.53 3.8 57.38 C-1.99 62.59 -8.46 62.98 -16 63 C-24.13 62.41 -29.71 58.64 -35.09 52.68 C-41.69 43.41 -42.05 31.78 -40.31 20.94 C-38.47 12.84 -35.2 5.53 -28 1 C-18.63 -3.35 -9.48 -5.18 0 0 Z " fill="#FCFDFF" transform="translate(406,781)"/>
<path d="M0 0 C1.05 0.31 2.11 0.63 3.19 0.95 C8.61 2.82 12 4.93 15 10 C15.71 12.51 16.19 14.97 16.6 17.54 C16.99 20.25 16.99 20.25 18.12 23.75 C19 27.01 19.24 29.65 19 33 C17.3 34.7 15.16 34.12 12.89 34.12 C11.8 34.11 11.8 34.11 10.69 34.1 C9.94 34.1 9.18 34.09 8.4 34.09 C0.09 34.03 -8.21 33.82 -16.51 33.48 C-18.23 33.41 -19.95 33.35 -21.67 33.31 C-39.16 32.84 -39.16 32.84 -44.66 27.57 C-45.1 27.05 -45.54 26.54 -46 26 C-46.69 25.22 -47.39 24.45 -48.1 23.65 C-59.42 6.76 -59.42 6.76 -58.59 1.27 C-56.28 -2.03 -53.87 -2.1 -50 -3 C-45.1 -3.56 -40.18 -3.71 -35.25 -3.88 C-34.56 -3.9 -33.87 -3.92 -33.16 -3.95 C-21.62 -4.31 -11.07 -3.42 0 0 Z " fill="#090A0C" transform="translate(915,586)"/>
<path d="M0 0 C1.33 0.68 2.66 1.35 4 2 C0.36 3.21 -0.17 2.69 -3.56 1.19 C-22.51 -6.04 -46.52 -4.2 -66 0 C-65.4 3.92 -64.2 6.84 -62.28 10.3 C-61.74 11.28 -61.2 12.25 -60.65 13.26 C-59.8 14.77 -59.8 14.77 -58.94 16.31 C-58.37 17.34 -57.8 18.37 -57.22 19.42 C-55.82 21.95 -54.41 24.48 -53 27 C-56 27 -56 27 -57.65 25.68 C-58.22 25.08 -58.79 24.49 -59.38 23.88 C-59.94 23.29 -60.5 22.71 -61.09 22.12 C-62.55 20.49 -63.96 18.81 -65.32 17.1 C-78.41 1.31 -96.51 -4.82 -116 -8 C-118.34 -8.4 -120.68 -8.81 -123.02 -9.21 C-147.88 -13.44 -172.99 -17.41 -198.26 -17.58 C-199.26 -17.6 -200.25 -17.61 -201.28 -17.63 C-202.15 -17.63 -203.01 -17.63 -203.91 -17.63 C-204.94 -17.81 -204.94 -17.81 -206 -18 C-206.66 -18.99 -207.32 -19.98 -208 -21 C-38.66 -26.09 -38.66 -26.09 0 0 Z " fill="#090A0C" transform="translate(916,583)"/>
<path d="M0 0 C11.81 2.81 19.02 7.72 25.59 18.07 C35.46 36.54 34.59 58 29.27 77.67 C27.24 83.45 24.04 87.41 19.78 91.77 C17.86 93.67 17.86 93.67 17.07 96.68 C9.98 101.11 2.26 101.98 -5.93 101.68 C-5.93 101.35 -5.93 101.02 -5.93 100.68 C-3.62 100.68 -1.31 100.68 1.07 100.68 C1.57 99.69 1.57 99.69 2.07 98.68 C3.66 97.26 5.27 95.87 6.89 94.49 C13.84 88.31 17.3 81.82 19.07 72.68 C19.4 72.35 19.73 72.02 20.07 71.68 C22.22 64.16 22.43 56.63 22.39 48.87 C22.38 47.72 22.38 46.57 22.37 45.38 C22.2 33.32 20.41 23.16 14.07 12.68 C13.72 12.08 13.36 11.49 12.99 10.87 C8.68 4.76 1.07 2.94 -5.93 1.68 C-2.93 -0.32 -2.93 -0.32 0 0 Z " fill="#090A0C" transform="translate(697.92578125,601.3203125)"/>
<path d="M0 0 C6.94 4.87 13.09 14.36 15.79 22.33 C15.89 23.16 15.89 23.16 16 24 C14.02 25.98 10.12 25.21 7.41 25.25 C5.8 25.28 4.2 25.31 2.59 25.35 C0.07 25.39 -2.45 25.44 -4.96 25.48 C-16.43 25.67 -27.64 26.44 -39 28 C-39.33 27.34 -39.66 26.68 -40 26 C-38.86 24.86 -37.73 23.73 -36.58 22.61 C-35.51 21.51 -34.46 20.39 -33.45 19.24 C-27.22 12.43 -9.8 -2.39 0 0 Z " fill="#090A0C" transform="translate(523,544)"/>
<path d="M0 0 C0 0.99 0 1.98 0 3 C-10.66 12.75 -24.86 17.64 -39.16 17.23 C-47.7 16.53 -54.44 14.12 -61.62 9.56 C-62.23 9.18 -62.83 8.8 -63.46 8.4 C-66.59 6.3 -68.73 4.61 -70 1 C-65.01 -0.32 -60.06 -0.11 -54.94 -0.06 C-53.47 -0.06 -53.47 -0.06 -51.97 -0.05 C-47.79 -0.03 -43.61 -0.01 -39.43 0.02 C-36.37 0.04 -33.31 0.05 -30.25 0.06 C-29.27 0.07 -28.28 0.07 -27.27 0.07 C-20.7 0.07 -14.25 -0.22 -7.72 -0.88 C-4.96 -1 -2.68 -0.66 0 0 Z " fill="#090A0C" transform="translate(913,691)"/>
<path d="M0 0 C1.75 -0.03 3.5 -0.05 5.25 -0.06 C6.71 -0.08 6.71 -0.08 8.2 -0.1 C10.67 -0.01 12.65 0.3 15 1 C18.11 1.82 20.87 2.01 24.06 1.92 C31.21 1.89 38.28 2.73 45.39 3.48 C49.85 3.95 54.32 4.4 58.78 4.86 C59.71 4.95 60.64 5.05 61.59 5.15 C71.37 6.15 81.15 7.09 90.94 8 C91.8 8.08 92.67 8.16 93.56 8.25 C104.56 9.27 115.56 10.22 126.57 11.11 C127.71 11.2 128.84 11.29 130.01 11.38 C135.56 11.83 141.12 12.26 146.68 12.69 C148.68 12.85 150.69 13.01 152.7 13.17 C153.63 13.24 154.56 13.31 155.51 13.38 C161.89 13.89 161.89 13.89 163 15 C164.35 15.23 165.7 15.41 167.06 15.56 C168.36 15.71 169.66 15.85 171 16 C171 16.33 171 16.66 171 17 C161.41 16.92 151.82 16.82 142.23 16.71 C137.78 16.66 133.33 16.62 128.87 16.58 C124.57 16.54 120.26 16.49 115.96 16.44 C114.32 16.42 112.69 16.41 111.05 16.4 C102.18 16.33 93.7 15.93 85 14 C82.95 13.66 80.9 13.34 78.84 13.03 C77.21 12.78 77.21 12.78 75.54 12.53 C65.1 10.97 54.66 9.44 44.22 7.91 C40.03 7.3 35.84 6.68 31.64 6.04 C29.87 5.78 28.09 5.51 26.31 5.25 C25.09 5.07 25.09 5.07 23.84 4.88 C17.48 3.98 11.16 3.57 4.74 3.41 C3.38 3.21 3.38 3.21 2 3 C1.34 2.01 0.68 1.02 0 0 Z " fill="#090A0C" transform="translate(439,670)"/>
<path d="M0 0 C8.21 1.72 13.74 6.1 18.66 12.77 C20.96 16.71 22.54 20.84 22.24 25.47 C21.1 27.22 21.1 27.22 19.24 28.47 C11.42 30.03 5.19 28.2 -1.48 24.12 C-4.17 22.17 -6.02 20.3 -7.76 17.47 C-8.34 16.68 -8.92 15.9 -9.51 15.09 C-11.18 11.58 -11.31 9.32 -10.76 5.47 C-7.86 1.21 -5.26 -0.4 0 0 Z " fill="#090A0C" transform="translate(817.76171875,582.53125)"/>
<path d="M0 0 C5.99 2.24 10.83 5.07 15 10 C15.58 10.62 16.15 11.24 16.75 11.88 C18.47 14.8 18.57 17.67 19 21 C19.66 21.66 20.32 22.32 21 23 C20.01 23.33 19.02 23.66 18 24 C18 23.34 18 22.68 18 22 C17.44 22.49 16.87 22.97 16.29 23.47 C12.4 26.07 8.52 25.59 4 25 C-3.15 23.02 -10.39 18.42 -14.22 11.93 C-15.35 9.13 -15.1 7.82 -14 5 C-9.84 0.43 -6.28 -1.38 0 0 Z " fill="#090A0C" transform="translate(783,583)"/>
<path d="M0 0 C2.47 2.37 4.67 4.83 6.81 7.5 C15.64 17.65 29.32 16.89 41.87 17.78 C45.54 18.03 49.21 18.27 52.88 18.5 C54.84 18.63 56.8 18.76 58.76 18.89 C74.37 19.9 89.99 20.69 105.62 21.35 C106.86 21.41 106.86 21.41 108.13 21.46 C109.68 21.53 111.23 21.6 112.78 21.66 C117.89 21.89 117.89 21.89 119 23 C120.68 23.23 122.37 23.41 124.06 23.56 C124.98 23.65 125.9 23.73 126.85 23.82 C127.91 23.91 127.91 23.91 129 24 C129 24.33 129 24.66 129 25 C106.45 25.14 83.93 24.81 61.38 24.26 C56.78 24.14 52.17 24.04 47.57 23.95 C43.98 23.87 40.38 23.78 36.79 23.69 C35.09 23.65 33.39 23.62 31.69 23.58 C29.33 23.53 26.98 23.47 24.62 23.41 C23.94 23.4 23.25 23.39 22.54 23.38 C16.51 23.19 11.11 21.95 6.46 17.89 C2.77 13.1 0 6.05 0 0 Z " fill="#090A0C" transform="translate(486,623)"/>
<path d="M0 0 C8.94 -0.78 8.94 -0.78 13.06 2.25 C16.03 6.46 16.12 9.77 16.1 14.86 C16.09 15.97 16.09 17.09 16.09 18.24 C16.08 19.4 16.07 20.56 16.06 21.75 C16.06 22.92 16.05 24.1 16.05 25.31 C16.04 28.21 16.02 31.1 16 34 C15.22 33.82 14.43 33.63 13.63 33.44 C10.52 32.92 9.68 33.51 7 35 C2.4 35.73 -1.8 35.45 -6 33.38 C-9 31 -9 31 -10.06 28.06 C-10 24.81 -9.61 22.82 -8 20 C-7.01 19.67 -6.02 19.34 -5 19 C-4.57 18.51 -4.13 18.02 -3.69 17.51 C-1.29 15.37 0.85 15.26 4 14.81 C5.05 14.65 6.1 14.5 7.19 14.33 C10 14 10 14 13 14 C12.54 12.08 12.54 12.08 12.06 10.12 C11.89 9.41 11.71 8.69 11.54 7.95 C11.05 5.94 11.05 5.94 10 4 C8.23 3.97 6.46 3.95 4.69 3.94 C3.7 3.93 2.72 3.91 1.7 3.9 C-1.1 3.88 -1.1 3.88 -4 5 C-4.33 4.34 -4.66 3.68 -5 3 C-4.34 3 -3.68 3 -3 3 C-2.67 2.34 -2.34 1.68 -2 1 C-1.34 1.33 -0.68 1.66 0 2 C0 1.34 0 0.68 0 0 Z " fill="#090A0C" transform="translate(825,899)"/>
<path d="M0 0 C0.33 0 0.66 0 1 0 C1.5 10.39 1.5 10.39 2 21 C6.29 21.99 10.58 22.98 15 24 C12.39 30.51 9.03 33.52 3 37 C-1.62 38.39 -6.21 38.75 -11 39 C-12.28 39.08 -12.28 39.08 -13.58 39.16 C-19.39 39.51 -25.19 39.78 -31 40 C-29.02 39.5 -29.02 39.5 -27 39 C-27 38.34 -27 37.68 -27 37 C-25.82 36.46 -24.65 35.93 -23.44 35.38 C-13.22 30.18 -6.72 21.69 -3.06 10.81 C-2.71 9.55 -2.36 8.3 -2 7 C-1.34 7 -0.68 7 0 7 C0 4.69 0 2.38 0 0 Z " fill="#090A0C" transform="translate(734,666)"/>
<path d="M0 0 C3.54 0.68 5.09 2.64 7.22 5.43 C9.22 8.43 9.22 8.43 10.22 18.43 C2.63 18.76 -4.96 19.09 -12.78 19.43 C-14.16 23.32 -14.16 23.32 -12.59 26.55 C-10.61 29.68 -10.16 30.23 -6.78 31.43 C-3.87 31.8 -0.96 31.93 1.97 32.05 C2.77 32.09 3.56 32.13 4.38 32.17 C6.32 32.26 8.27 32.34 10.22 32.43 C7.13 35.52 4.24 35.63 0.04 35.74 C-5.41 35.69 -9.35 34.61 -13.78 31.43 C-17.33 27.64 -17.93 24.13 -17.96 19.05 C-17.98 18.11 -17.99 17.18 -18.01 16.21 C-17.61 11.39 -16.46 9.03 -12.84 5.8 C-11.83 5.02 -10.82 4.23 -9.78 3.43 C-9.31 2.89 -8.84 2.36 -8.36 1.81 C-5.77 -0.46 -3.31 -0.1 0 0 Z " fill="#090A0C" transform="translate(680.77734375,898.57421875)"/>
<path d="M0 0 C6.89 0.12 12.01 0.74 17.31 5.5 C19.29 9.07 20.07 12.27 19.88 16.31 C18.62 20.55 17.79 22.65 14.19 25.25 C13.42 25.6 12.66 25.95 11.88 26.31 C13.31 31.23 15.42 35.31 18 39.69 C18.56 40.65 18.56 40.65 19.13 41.63 C20.04 43.19 20.96 44.75 21.88 46.31 C19.21 45.95 18.12 45.6 16.35 43.53 C15.88 42.78 15.42 42.02 14.94 41.25 C14.43 40.44 13.92 39.64 13.4 38.8 C12.9 37.98 12.39 37.16 11.88 36.31 C11.38 35.55 10.89 34.79 10.38 34.01 C6.88 28.59 6.88 28.59 6.88 26.31 C5.23 26.45 3.58 26.6 1.94 26.75 C1.02 26.83 0.1 26.91 -0.84 27 C-3.09 27.07 -3.09 27.07 -4.12 28.31 C-4.28 29.65 -4.38 31 -4.44 32.35 C-4.48 33.16 -4.53 33.97 -4.57 34.8 C-4.61 35.65 -4.65 36.5 -4.69 37.38 C-4.73 38.23 -4.77 39.08 -4.82 39.96 C-4.92 42.08 -5.03 44.2 -5.12 46.31 C-6.12 45.98 -7.11 45.65 -8.12 45.31 C-8.17 39.23 -8.21 33.14 -8.23 27.05 C-8.24 24.98 -8.26 22.91 -8.28 20.83 C-8.3 17.86 -8.31 14.89 -8.32 11.91 C-8.33 10.98 -8.34 10.05 -8.35 9.1 C-8.35 8.23 -8.35 7.37 -8.35 6.49 C-8.36 5.73 -8.36 4.97 -8.37 4.19 C-7.75 -0.61 -3.91 0.01 0 0 Z M-5.12 5.31 C-5.3 8.2 -5.36 10.99 -5.31 13.88 C-5.31 14.67 -5.31 15.46 -5.31 16.28 C-5.65 20.1 -5.65 20.1 -4.12 23.31 C-1.34 23.69 1.39 23.97 4.19 24.19 C4.96 24.27 5.73 24.36 6.53 24.45 C10.58 24.75 12.21 24.87 15.42 22.17 C17.82 17.47 17.09 13.33 15.88 8.31 C13.56 4.96 11.77 4.06 7.88 3.31 C6 3.2 4.13 3.14 2.25 3.12 C1.29 3.11 0.33 3.1 -0.66 3.08 C-3.3 3.07 -3.3 3.07 -5.12 5.31 Z " fill="#090A0C" transform="translate(635.125,886.6875)"/>
<path d="M0 0 C1.71 0.05 3.42 0.1 5.13 0.15 C32.62 0.98 60.1 2.45 87.56 3.81 C87.56 4.14 87.56 4.47 87.56 4.81 C72.45 5.79 57.41 5.85 42.28 5.66 C41.32 5.64 40.37 5.63 39.38 5.62 C32.42 5.53 25.46 5.42 18.5 5.31 C11.5 5.21 4.5 5.1 -2.5 5.01 C-5.26 4.97 -8.02 4.92 -10.78 4.88 C-20.73 4.73 -30.52 4.95 -40.44 5.81 C-40.44 5.15 -40.44 4.49 -40.44 3.81 C-37.8 3.81 -35.16 3.81 -32.44 3.81 C-32.44 3.15 -32.44 2.49 -32.44 1.81 C-21.48 -0.01 -11.08 -0.37 0 0 Z " fill="#090A0C" transform="translate(535.4375,653.1875)"/>
<path d="M0 0 C-1.19 0.37 -2.38 0.73 -3.6 1.11 C-24.24 7.74 -41.77 17.69 -58 32 C-59.2 33.04 -60.4 34.07 -61.6 35.1 C-62.48 35.85 -62.48 35.85 -63.37 36.62 C-63.95 37.12 -64.53 37.61 -65.12 38.12 C-65.7 38.62 -66.27 39.11 -66.86 39.62 C-87.92 57.69 -111.15 71.83 -136.69 82.75 C-137.5 83.1 -138.3 83.45 -139.14 83.8 C-141.07 84.6 -143.03 85.31 -145 86 C-145.66 85.67 -146.32 85.34 -147 85 C-146.1 84.59 -145.21 84.17 -144.28 83.75 C-130.78 77.51 -117.5 71.05 -104.7 63.47 C-102 62 -102 62 -100 62 C-99.5 61.01 -99.5 61.01 -99 60 C-97.63 59.18 -96.23 58.42 -94.81 57.69 C-90.72 55.48 -87.48 53.07 -84 50 C-82.67 48.99 -81.34 47.99 -80 47 C-73.28 41.75 -73.28 41.75 -67 36 C-66 35 -65 34 -64 33 C-62.76 31.7 -62.76 31.7 -61.5 30.38 C-59 28 -59 28 -56 27 C-55.5 25.51 -55.5 25.51 -55 24 C-53.19 22.94 -53.19 22.94 -51 22 C-48.48 20.81 -47 20 -45 18 C-43.67 17.33 -42.33 16.67 -41 16 C-40.34 15.34 -39.68 14.68 -39 14 C-38.32 13.84 -37.64 13.67 -36.94 13.5 C-36.3 13.34 -35.66 13.17 -35 13 C-34.67 12.34 -34.34 11.68 -34 11 C-32.21 9.99 -32.21 9.99 -29.88 8.94 C-29.02 8.56 -28.17 8.17 -27.29 7.77 C-26.39 7.37 -25.49 6.97 -24.56 6.56 C-23.7 6.17 -22.83 5.77 -21.94 5.37 C-5.7 -1.9 -5.7 -1.9 0 0 Z " fill="#090A0C" transform="translate(542,526)"/>
<path d="M0 0 C4.79 -0.47 7.93 -0.78 11.94 2.12 C16.63 8.67 16.25 15.12 16.12 22.88 C16.12 23.94 16.11 25.01 16.1 26.12 C16.07 28.75 16.04 31.37 16 34 C15.01 34 14.02 34 13 34 C12.99 33.3 12.97 32.61 12.96 31.89 C12.88 28.72 12.78 25.55 12.69 22.38 C12.66 21.28 12.64 20.19 12.62 19.06 C12.43 13.27 12.21 8.9 9 4 C2.16 3.44 2.16 3.44 -4.06 5.88 C-7.04 9.14 -7.16 11.11 -7.32 15.45 C-7.36 16.52 -7.4 17.6 -7.44 18.71 C-7.5 20.4 -7.5 20.4 -7.56 22.12 C-7.61 23.26 -7.65 24.4 -7.69 25.57 C-7.8 28.38 -7.9 31.19 -8 34 C-9.32 33.67 -10.64 33.34 -12 33 C-12.24 8.93 -12.24 8.93 -11 2 C-10.34 1.67 -9.68 1.34 -9 1 C-8.34 1.66 -7.68 2.32 -7 3 C-7.33 3.99 -7.66 4.98 -8 6 C-7.32 5.26 -7.32 5.26 -6.62 4.5 C-5 3 -5 3 -3 3 C-2.67 2.34 -2.34 1.68 -2 1 C-1.34 1.33 -0.68 1.66 0 2 C0 1.34 0 0.68 0 0 Z " fill="#090A0C" transform="translate(712,899)"/>
<path d="M0 0 C1.57 0.01 1.57 0.01 3.17 0.02 C5.81 0.19 5.81 0.19 7.81 1.19 C7.81 1.85 7.81 2.51 7.81 3.19 C8.47 3.19 9.13 3.19 9.81 3.19 C9.48 3.85 9.15 4.51 8.81 5.19 C7.82 4.86 6.83 4.53 5.81 4.19 C-0.86 3.69 -6.36 3.51 -12.19 7.19 C-12.85 7.19 -13.51 7.19 -14.19 7.19 C-18.31 14.79 -20.32 21.52 -19.19 30.19 C-17.53 35.54 -14.96 39.13 -10.19 42.19 C-6.47 43.43 -2.87 43.54 1 43.75 C2.12 43.81 2.12 43.81 3.27 43.88 C5.12 43.99 6.97 44.09 8.81 44.19 C8.81 44.85 8.81 45.51 8.81 46.19 C1.12 48.75 -7.03 47.7 -14.19 44.19 C-18.93 41.49 -20.67 38.01 -22.45 33.02 C-24.85 23.82 -23.24 16.95 -18.99 8.59 C-16.91 5.82 -15.4 5.26 -12.19 4.19 C-11.86 3.53 -11.53 2.87 -11.19 2.19 C-7.39 0.24 -4.23 -0.06 0 0 Z " fill="#090A0C" transform="translate(799.1875,886.8125)"/>
<path d="M0 0 C0.66 0.33 1.32 0.66 2 1 C2.01 1.77 2.02 2.54 2.03 3.34 C2.08 6.83 2.17 10.32 2.25 13.81 C2.26 15.03 2.28 16.24 2.29 17.49 C2.33 18.66 2.36 19.82 2.39 21.02 C2.41 22.09 2.43 23.17 2.45 24.27 C2.76 27.1 2.76 27.1 4.87 28.84 C7.5 30.27 9.58 30.54 12.56 30.75 C13.99 30.87 13.99 30.87 15.44 30.98 C18.12 31.14 18.12 31.14 21 30 C22.22 24.08 22.34 18.14 22.56 12.12 C22.61 11.06 22.65 9.99 22.69 8.88 C22.8 6.26 22.9 3.63 23 1 C23.99 1 24.98 1 26 1 C26 11.56 26 22.12 26 33 C24.35 32.67 22.7 32.34 21 32 C18.97 32.89 18.97 32.89 17 34 C11.98 34.71 8.06 34.53 3.5 32.25 C0.33 29.4 -0.86 27.54 -1.24 23.27 C-1.24 21.74 -1.24 21.74 -1.23 20.18 C-1.23 19.07 -1.23 17.95 -1.22 16.81 C-1.21 15.66 -1.2 14.5 -1.19 13.31 C-1.19 12.15 -1.19 10.98 -1.19 9.78 C-1.14 1.14 -1.14 1.14 0 0 Z " fill="#090A0C" transform="translate(517,900)"/>
<path d="M0 0 C0.42 6.05 0.11 9.18 -4 14 C-7.01 15 -8.42 15.03 -11.5 14.69 C-12.66 14.57 -12.66 14.57 -13.84 14.45 C-16 14 -16 14 -19 12 C-20.21 8.8 -20.21 7.47 -18.81 4.31 C-16.49 1.35 -14.46 0.3 -10.78 -0.45 C-10.03 -0.53 -9.28 -0.61 -8.5 -0.69 C-7.37 -0.82 -7.37 -0.82 -6.22 -0.95 C-3.95 -1 -2.16 -0.65 0 0 Z " fill="#FCFDFF" transform="translate(838,917)"/>
<path d="M0 0 C0.66 0.33 1.32 0.66 2 1 C2.03 1.57 2.05 2.14 2.08 2.72 C2.19 5.34 2.32 7.95 2.44 10.56 C2.48 11.46 2.52 12.35 2.56 13.28 C2.86 20.69 2.86 20.69 4 28 C7.3 30.2 9.1 30.48 13 30.88 C14.05 31 15.1 31.12 16.19 31.24 C19.05 31.28 19.05 31.28 20.81 29.38 C23.67 23.65 23.29 16.91 23.56 10.62 C23.61 9.7 23.65 8.77 23.69 7.82 C23.8 5.54 23.9 3.27 24 1 C24.99 1 25.98 1 27 1 C27 11.56 27 22.12 27 33 C26.01 33 25.02 33 24 33 C24 32.34 24 31.68 24 31 C23.22 31.5 22.43 31.99 21.62 32.5 C15.77 34.92 10.45 34.88 4.5 32.75 C1.81 30.87 0.95 30.09 0 27 C-0.96 21.52 -1.15 16.23 -1.12 10.69 C-1.13 9.88 -1.13 9.07 -1.14 8.23 C-1.13 2.25 -1.13 2.25 0 0 Z " fill="#090A0C" transform="translate(446,900)"/>
<path d="M0 0 C0.66 0 1.32 0 2 0 C3.43 3.66 4.85 7.33 6.27 11 C6.99 12.86 7.72 14.72 8.45 16.58 C8.9 17.75 9.35 18.92 9.81 20.12 C10.23 21.2 10.65 22.27 11.08 23.39 C12 26 12 26 12 28 C12.66 28 13.32 28 14 28 C14.33 28 14.66 28 15 28 C15.33 27.34 15.66 26.68 16 26 C16.66 26 17.32 26 18 26 C17.67 25.01 17.34 24.02 17 23 C17.66 23 18.32 23 19 23 C18.67 22.01 18.34 21.02 18 20 C18.96 17.98 19.97 15.98 21 14 C21.69 11.67 22.36 9.34 23 7 C23.88 4.12 23.88 4.12 25 2 C27.07 1.37 27.07 1.37 29 1 C28.73 1.7 28.46 2.41 28.18 3.13 C27.37 5.23 26.56 7.33 25.75 9.43 C24.83 11.82 23.91 14.2 22.99 16.59 C21.01 21.74 19.02 26.89 17.14 32.08 C16.88 32.8 16.62 33.52 16.35 34.26 C15.67 36.11 15.01 37.97 14.35 39.83 C10.83 48.08 10.83 48.08 7 50 C5 50.04 3 50.04 1 50 C1 49.01 1 48.02 1 47 C3.31 47 5.62 47 8 47 C8.43 45.64 8.43 45.64 8.88 44.25 C10 41 10 41 11.14 39.07 C12.25 36.4 11.83 35.37 10.84 32.69 C10.54 31.87 10.25 31.04 9.94 30.2 C9.61 29.33 9.28 28.46 8.94 27.56 C8.61 26.67 8.29 25.78 7.95 24.86 C5.7 18.71 3.33 12.6 0.85 6.53 C0 4 0 4 0 0 Z " fill="#090A0C" transform="translate(575,899)"/>
<path d="M0 0 C2.56 2.06 2.56 2.06 4 5 C4 7.31 4 9.62 4 12 C-2.6 12 -9.2 12 -16 12 C-16.33 11.34 -16.66 10.68 -17 10 C-13.81 1.84 -8.71 -1.85 0 0 Z " fill="#FCFDFF" transform="translate(683,902)"/>
<path d="M0 0 C0.66 0 1.32 0 2 0 C2.33 13.53 2.66 27.06 3 41 C9.6 41.33 16.2 41.66 23 42 C23.66 42.99 24.32 43.98 25 45 C20.85 45.03 16.71 45.05 12.56 45.06 C10.79 45.08 10.79 45.08 8.97 45.09 C7.85 45.09 6.73 45.09 5.57 45.1 C4 45.11 4 45.11 2.41 45.11 C0 45 0 45 -1 44 C-1.1 42.65 -1.13 41.3 -1.13 39.96 C-1.13 39.1 -1.14 38.24 -1.14 37.36 C-1.14 36.42 -1.13 35.49 -1.13 34.53 C-1.13 33.58 -1.13 32.63 -1.14 31.65 C-1.14 29.64 -1.13 27.62 -1.13 25.61 C-1.13 22.51 -1.13 19.42 -1.14 16.32 C-1.14 14.37 -1.13 12.42 -1.13 10.47 C-1.13 9.54 -1.14 8.6 -1.14 7.64 C-1.14 6.79 -1.13 5.93 -1.13 5.04 C-1.13 4.29 -1.13 3.53 -1.13 2.75 C-1 1 -1 1 0 0 Z " fill="#090A0C" transform="translate(414,888)"/>
<path d="M0 0 C0.99 0 1.98 0 3 0 C3 1.65 3 3.3 3 5 C5.64 5.33 8.28 5.66 11 6 C11.33 6.99 11.66 7.98 12 9 C9.95 9.23 7.9 9.46 5.85 9.68 C3.99 9.82 3.99 9.82 3 11 C2.75 14.78 2.81 18.58 2.81 22.38 C2.8 23.44 2.79 24.51 2.78 25.61 C2.77 26.63 2.77 27.66 2.77 28.71 C2.77 29.65 2.76 30.59 2.76 31.56 C2.83 34.26 2.83 34.26 5 37 C7.19 37.79 7.19 37.79 9.62 38.19 C10.44 38.35 11.26 38.5 12.1 38.67 C12.73 38.78 13.35 38.89 14 39 C14 39.66 14 40.32 14 41 C5.05 41.46 5.05 41.46 1 38 C-0.74 34.43 -1.28 31.43 -1.41 27.48 C-1.45 26.46 -1.49 25.44 -1.53 24.38 C-1.56 23.33 -1.59 22.27 -1.62 21.19 C-1.68 19.58 -1.68 19.58 -1.74 17.93 C-1.84 15.29 -1.92 12.64 -2 10 C-2.66 10 -3.32 10 -4 10 C-4 9.01 -4 8.02 -4 7 C-3.01 6.34 -2.02 5.68 -1 5 C-0.27 2.44 -0.27 2.44 0 0 Z " fill="#090A0C" transform="translate(740,893)"/>
<path d="M0 0 C0.66 0 1.32 0 2 0 C3.73 2.12 3.73 2.12 5.62 4.88 C6.26 5.78 6.89 6.68 7.54 7.62 C9 10 9 10 9 12 C10.65 12.33 12.3 12.66 14 13 C16.64 9.37 19.28 5.74 22 2 C22 6.66 19 9.51 16.34 13.21 C14.71 15.88 14.71 15.88 15.53 18.49 C17.24 21.41 19.1 24.1 21.12 26.81 C21.85 27.79 22.57 28.76 23.32 29.77 C23.87 30.51 24.43 31.24 25 32 C24.01 32.5 24.01 32.5 23 33 C18.77 29.01 15.43 24.7 12 20 C7.05 26.43 7.05 26.43 2 33 C1.34 32.67 0.68 32.34 0 32 C0.85 30.86 0.85 30.86 1.71 29.7 C2.45 28.71 3.18 27.71 3.94 26.69 C5.03 25.21 5.03 25.21 6.15 23.7 C8.13 21.08 8.13 21.08 9 18 C6.36 11.87 2.8 6.47 -1 1 C-0.67 0.67 -0.34 0.34 0 0 Z " fill="#090A0C" transform="translate(483,900)"/>
<path d="M0 0 C0 0.66 0 1.32 0 2 C-0.6 2.09 -1.21 2.17 -1.83 2.26 C-7.2 3.2 -7.2 3.2 -11.5 6.44 C-13.59 10.01 -14.14 12.82 -14.32 16.89 C-14.36 17.82 -14.4 18.76 -14.44 19.73 C-14.48 20.7 -14.52 21.68 -14.56 22.69 C-14.61 23.68 -14.65 24.66 -14.69 25.68 C-14.8 28.12 -14.9 30.56 -15 33 C-15.99 32.67 -16.98 32.34 -18 32 C-18 21.77 -18 11.54 -18 1 C-17.01 1 -16.02 1 -15 1 C-14.67 2.32 -14.34 3.64 -14 5 C-13.34 5 -12.68 5 -12 5 C-12 4.34 -12 3.68 -12 3 C-7.99 -1.25 -5.57 -1.31 0 0 Z " fill="#090A0C" transform="translate(870,900)"/>
<path d="M0 0 C0.33 0.99 0.66 1.98 1 3 C0.4 3.07 -0.21 3.15 -0.83 3.23 C-2.03 3.42 -2.03 3.42 -3.25 3.62 C-4.04 3.74 -4.83 3.86 -5.64 3.98 C-8.32 5.14 -9.72 6.46 -11.23 8.97 C-12.91 13.4 -12.69 18.19 -12.75 22.88 C-12.78 23.94 -12.81 25.01 -12.84 26.12 C-12.91 28.74 -12.96 31.37 -13 34 C-13.99 33.67 -14.98 33.34 -16 33 C-16 22.77 -16 12.54 -16 2 C-14.68 2.33 -13.36 2.66 -12 3 C-12.33 4.32 -12.66 5.64 -13 7 C-12.1 6.1 -12.1 6.1 -11.19 5.19 C-10.1 4.1 -10.1 4.1 -9 3 C-8.32 2.13 -8.32 2.13 -7.62 1.25 C-5.17 -0.64 -2.99 -0.2 0 0 Z " fill="#090A0C" transform="translate(571,899)"/>
<path d="M0 0 C6.05 2.46 8.93 8.47 11.38 14.25 C11.99 16.94 12.16 19.25 12 22 C6.11 19.53 3.78 13.88 1.19 8.31 C0.09 5.24 -0.29 3.21 0 0 Z " fill="#090A0C" transform="translate(931,595)"/>
<path d="M0 0 C3.45 0.26 4.22 1.24 6.62 3.88 C11.04 9.68 11.04 9.68 10.62 13.19 C10.42 14.12 10.21 15.04 10 16 C9.01 15.67 8.02 15.34 7 15 C6.9 13.93 6.79 12.86 6.69 11.75 C6.01 8.08 5.34 6.75 3 4 C3 3.34 3 2.68 3 2 C2.01 1.67 1.02 1.34 0 1 C0 0.67 0 0.34 0 0 Z " fill="#FCFDFF" transform="translate(794,589)"/>
<path d="M0 0 C2.86 0.08 4.55 0.57 6.63 2.55 C10.59 7.16 12.39 9.73 12 16 C11.34 16.66 10.68 17.32 10 18 C10.12 17.17 10.25 16.35 10.38 15.5 C9.85 10.58 7.42 7.49 4 4 C1.9 2.77 1.9 2.77 0 2 C0 1.34 0 0.68 0 0 Z " fill="#090A0C" transform="translate(794,587)"/>
<path d="M0 0 C4.47 1.37 6.49 3.06 9 7 C10.16 9.96 11.12 12.95 12 16 C11.34 16.66 10.68 17.32 10 18 C9.67 17.06 9.67 17.06 9.34 16.09 C7.05 9.91 4.23 5.05 0 0 Z " fill="#090A0C" transform="translate(833,590)"/>
<path d="M0 0 C1.79 -0.03 3.58 -0.05 5.38 -0.06 C6.37 -0.07 7.37 -0.09 8.4 -0.1 C11 0 11 0 13 1 C13 1.66 13 2.32 13 3 C8.71 3 4.42 3 0 3 C0 2.01 0 1.02 0 0 Z " fill="#090A0C" transform="translate(876,915)"/>
<path d="M0 0 C1.62 -0.03 3.25 -0.05 4.88 -0.06 C5.78 -0.07 6.68 -0.09 7.62 -0.1 C10 0 10 0 12 1 C12 1.66 12 2.32 12 3 C8.04 3 4.08 3 0 3 C0 2.01 0 1.02 0 0 Z " fill="#090A0C" transform="translate(391,915)"/>
</svg>
